<?xml version="1.0" standalone="no"?>
<!DOCTYPE svg PUBLIC "-//W3C//DTD SVG 20010904//EN"
 "http://www.w3.org/TR/2001/REC-SVG-20010904/DTD/svg10.dtd">
<svg version="1.0" xmlns="http://www.w3.org/2000/svg"
 width="300.000000pt" height="301.000000pt" viewBox="0 0 300.000000 301.000000"
 preserveAspectRatio="xMidYMid meet">
<metadata>
Created by potrace 1.10, written by Peter Selinger 2001-2011
</metadata>
<g transform="translate(0.000000,301.000000) scale(0.100000,-0.100000)"
fill="#000000" stroke="none">
<path d="M2984 2850 c0 -91 2 -128 3 -82 2 45 2 119 0 165 -1 45 -3 8 -3 -83z"/>
<path d="M170 2835 c-16 -19 -18 -2631 -2 -2647 16 -16 2640 -17 2653 -2 6 8
10 500 10 1326 -1 1226 -2 1314 -18 1326 -13 9 -294 12 -1324 12 -1139 0
-1308 -2 -1319 -15z m2640 -1320 l0 -1315 -1315 -2 -1315 -3 0 1318 0 1317
1315 0 1315 0 0 -1315z"/>
<path d="M200 1510 l0 -1290 1295 0 1295 0 0 1290 0 1290 -1295 0 -1294 0 -1
-1290z m2562 1231 c3 -34 2 -1033 -1 -1960 -1 -227 0 -415 1 -416 2 -2 2 -30
0 -62 l-4 -59 -1264 -1 -1264 -2 0 27 c1 15 0 311 -1 657 -1 347 -1 906 0
1242 l1 613 1264 -2 1264 -1 4 -36z"/>
<path d="M1268 2179 c-12 -7 -18 -22 -18 -49 0 -45 -1 -45 -38 -26 -33 17 -75
11 -98 -15 -16 -18 -19 -18 -35 -3 -21 19 -87 35 -95 23 -3 -5 -12 -9 -21 -9
-11 0 -14 8 -11 31 6 42 -28 60 -67 35 -14 -9 -25 -23 -25 -31 0 -7 -5 -26
-11 -42 l-11 -28 -15 46 c-20 60 -54 82 -83 53 -11 -10 -26 -37 -33 -59 l-14
-40 -13 40 c-16 51 -37 75 -66 75 -35 0 -46 -30 -29 -76 8 -22 24 -71 36 -111
37 -123 72 -132 120 -33 l26 54 18 -53 c35 -108 106 -82 130 47 5 32 13 38 26
25 9 -9 6 -18 -9 -37 -23 -30 -23 -41 2 -79 18 -26 21 -27 82 -23 36 3 68 7
72 10 5 3 27 0 49 -6 34 -8 48 -7 74 6 26 13 35 14 47 3 17 -14 53 -10 64 7 4
6 8 35 8 64 0 65 20 70 21 5 1 -27 1 -51 1 -55 -2 -11 29 -32 48 -33 11 -1 22
5 25 13 4 12 8 12 21 1 21 -18 52 -19 66 -2 9 11 13 11 27 -1 37 -34 82 3 76
62 -2 19 0 42 3 51 4 9 9 -11 12 -44 5 -56 7 -61 39 -77 18 -9 42 -26 52 -37
11 -12 30 -22 42 -22 80 -6 124 15 134 61 l5 30 26 -20 c30 -24 35 -24 78 -4
24 11 38 13 47 6 6 -6 28 -13 47 -17 28 -5 43 -1 71 18 l35 24 17 -24 c22 -28
31 -29 57 -3 15 15 20 33 20 70 0 68 15 64 17 -6 2 -62 13 -82 45 -80 32 1 46
39 42 109 -5 86 -27 107 -110 107 -52 0 -64 -3 -76 -21 -13 -21 -15 -21 -31
-4 -34 33 -117 35 -138 2 -9 -13 -52 21 -72 56 -14 23 -20 26 -35 18 -11 -6
-27 -22 -36 -36 -15 -23 -22 -25 -49 -19 -52 11 -89 7 -119 -16 -27 -20 -28
-20 -47 -1 -16 16 -33 20 -81 19 -33 0 -63 -5 -66 -9 -3 -5 -12 -9 -20 -9 -11
0 -12 4 -4 19 14 28 13 38 -10 61 -33 33 -86 -2 -70 -46 5 -12 6 -32 3 -43 -5
-22 -6 -21 -34 7 -21 22 -35 28 -54 24 -22 -4 -25 -1 -25 25 0 46 -26 64 -62
42z m42 -61 c0 -40 3 -49 12 -40 7 7 24 12 39 12 42 0 59 -32 59 -113 0 -65
-1 -68 -22 -65 -21 3 -23 8 -23 65 0 69 -14 95 -43 77 -13 -8 -18 -28 -20 -78
-3 -58 -5 -66 -22 -66 -19 0 -20 8 -20 130 0 123 1 130 20 130 17 0 20 -7 20
-52z m190 37 c15 -18 6 -45 -13 -45 -8 0 -20 7 -27 15 -10 12 -10 18 0 30 16
19 24 19 40 0z m-838 -70 c11 -38 21 -77 24 -85 3 -8 18 23 33 70 22 68 31 85
46 85 15 0 25 -15 42 -60 12 -33 22 -70 22 -82 1 -35 18 -27 25 11 4 19 13 57
22 85 13 43 18 51 39 51 14 0 25 -1 25 -2 0 -2 -18 -57 -39 -123 -31 -96 -42
-121 -58 -123 -17 -3 -24 10 -49 89 l-29 92 -30 -92 c-25 -78 -32 -91 -49 -89
-16 2 -27 27 -58 123 -20 66 -38 121 -38 123 0 2 12 2 27 0 24 -3 28 -10 45
-73z m1300 30 c-4 -22 -1 -25 22 -25 19 0 26 -5 26 -19 0 -14 -6 -17 -25 -13
-24 4 -25 3 -25 -52 0 -49 3 -56 19 -56 25 0 38 -20 20 -31 -46 -29 -79 4 -79
81 0 37 -5 60 -12 64 -10 3 -8 9 5 19 9 8 17 24 17 36 0 14 6 21 19 21 14 0
17 -6 13 -25z m-898 -47 c11 -15 16 -45 16 -90 0 -67 -5 -79 -26 -58 -8 8 -19
7 -37 -1 -21 -9 -33 -9 -52 -1 -52 24 -17 92 47 92 21 0 28 5 28 20 0 26 -24
36 -54 22 -34 -15 -55 7 -24 25 37 20 85 16 102 -9z m150 16 c32 -12 18 -33
-20 -31 -50 3 -53 -16 -6 -35 50 -20 60 -51 27 -84 -27 -27 -62 -31 -90 -11
-27 20 -11 39 21 25 20 -9 28 -9 41 5 16 16 14 18 -25 34 -29 11 -44 24 -48
40 -12 45 46 78 100 57z m286 -84 c0 -83 -1 -90 -20 -90 -19 0 -20 7 -20 90 0
83 1 90 20 90 19 0 20 -7 20 -90z m83 78 c4 -10 7 -10 18 0 7 6 25 12 40 12
42 0 59 -32 59 -113 0 -64 -1 -68 -21 -65 -20 3 -22 10 -23 67 -1 48 -5 66
-18 74 -31 20 -48 -8 -48 -79 0 -57 -2 -64 -20 -64 -19 0 -20 7 -20 90 0 71 3
90 14 90 8 0 16 -6 19 -12z m261 6 c43 -6 66 -24 30 -24 -11 0 -13 -6 -9 -19
8 -28 -27 -61 -65 -61 -16 0 -30 -4 -30 -10 0 -5 16 -10 36 -10 47 0 74 -16
74 -44 0 -50 -81 -77 -138 -47 -24 13 -30 49 -9 56 13 6 17 69 4 81 -12 13 -8
47 10 66 18 20 28 21 97 12z m331 -19 c41 -40 29 -121 -22 -144 -39 -18 -63
-13 -94 18 -58 59 -24 151 56 151 25 0 44 -8 60 -25z m95 15 c0 -7 6 -7 19 0
28 14 57 12 75 -6 12 -11 16 -36 16 -90 0 -67 -2 -74 -20 -74 -18 0 -20 7 -20
70 0 77 -10 91 -50 70 -19 -10 -21 -19 -19 -73 3 -57 1 -62 -19 -65 -21 -3
-22 0 -22 87 0 84 1 91 20 91 11 0 20 -5 20 -10z m-1030 -50 c0 -5 -4 -10 -10
-10 -5 0 -10 5 -10 10 0 6 5 10 10 10 6 0 10 -4 10 -10z m656 -77 c-2 -3 -11
1 -19 8 -13 12 -13 18 2 44 l16 30 3 -39 c2 -21 1 -40 -2 -43z m112 47 c-1
-16 -5 -27 -10 -24 -11 7 -10 54 1 54 5 0 9 -13 9 -30z"/>
<path d="M998 1983 c-24 -6 -24 -43 0 -43 21 0 42 18 42 37 0 13 -10 15 -42 6z"/>
<path d="M1777 2054 c-4 -4 -7 -16 -7 -26 0 -15 6 -19 28 -16 19 2 27 9 27 23
0 20 -33 33 -48 19z"/>
<path d="M1767 1924 c-19 -19 -5 -34 33 -34 29 0 40 4 40 15 0 8 -6 15 -12 15
-7 0 -22 3 -33 6 -11 3 -24 2 -28 -2z"/>
<path d="M2093 2052 c-18 -11 -26 -58 -13 -81 26 -49 89 -9 75 47 -7 27 -21
42 -40 42 -5 0 -15 -4 -22 -8z m32 -50 c0 -31 -19 -28 -23 4 -3 18 0 25 10 22
7 -3 13 -14 13 -26z"/>
<path d="M1557 1778 c-10 -5 -17 -21 -17 -38 0 -25 -4 -30 -25 -30 -14 0 -36
-7 -49 -15 -23 -15 -25 -14 -59 27 -39 46 -57 46 -81 2 -16 -29 -27 -33 -52
-22 -37 17 -54 -5 -54 -68 0 -30 -4 -54 -10 -54 -10 0 -15 41 -11 86 2 29 -43
53 -70 36 -11 -7 -19 -8 -19 -2 0 6 -13 24 -30 42 -16 17 -30 27 -30 22 0 -4
-5 -3 -12 4 -21 21 -98 14 -135 -10 -48 -34 -67 -75 -61 -135 6 -61 31 -97 83
-119 66 -28 114 -17 165 38 11 12 20 17 20 10 0 -6 12 -22 27 -36 23 -22 34
-24 87 -22 48 3 63 8 78 26 10 12 18 18 18 12 0 -5 14 -19 32 -30 31 -20 32
-20 69 -2 31 17 38 17 43 5 7 -20 131 -14 152 7 13 13 20 12 60 -8 50 -25 86
-20 119 16 17 19 18 19 45 -2 41 -30 109 -33 138 -5 l22 21 16 -22 c20 -30 62
-29 69 1 6 21 12 64 14 100 1 10 9 17 21 17 12 0 25 10 32 26 17 36 -8 53 -75
51 -43 -2 -53 -6 -63 -26 -10 -19 -13 -20 -20 -8 -24 40 -106 49 -147 17 -14
-11 -29 -20 -35 -20 -5 0 -17 9 -27 20 -23 26 -80 26 -120 2 l-30 -19 -10 50
c-11 53 -36 74 -68 55z m46 -20 c-2 -5 -3 -62 -3 -128 0 -100 -2 -120 -15
-120 -8 0 -15 7 -15 15 0 14 -3 13 -25 -1 -59 -39 -119 29 -96 108 14 44 42
62 82 54 29 -5 29 -5 29 40 0 41 2 45 23 42 12 -2 21 -6 20 -10z m-563 -13
c41 -21 60 -53 60 -103 0 -57 -24 -100 -65 -118 -44 -18 -69 -18 -111 2 -60
29 -82 110 -49 174 28 55 105 76 165 45z m340 -33 c0 -23 4 -28 23 -28 13 1
22 -5 22 -14 0 -10 -8 -14 -22 -13 -21 3 -23 -1 -23 -51 0 -48 2 -55 22 -58
32 -5 33 -26 2 -34 -45 -12 -59 5 -62 80 -2 50 -6 66 -17 66 -8 0 -15 5 -15
10 0 6 7 10 15 10 9 0 15 9 15 23 0 27 7 37 27 37 8 0 13 -11 13 -28z m-208
-80 c-5 -68 14 -100 49 -82 16 9 19 22 19 75 0 58 2 65 20 65 19 0 20 -7 20
-90 0 -71 -3 -90 -14 -90 -8 0 -16 5 -18 11 -3 9 -9 9 -25 0 -31 -16 -50 -14
-73 9 -16 16 -20 33 -20 90 0 66 1 70 23 70 22 0 23 -3 19 -58z m593 46 c32
-14 51 -71 36 -110 -15 -40 -54 -62 -96 -54 -43 8 -65 39 -65 89 0 69 60 105
125 75z m189 1 c84 -38 37 -180 -54 -165 -45 7 -70 38 -70 88 0 69 59 106 124
77z m112 -4 c5 -13 8 -13 21 0 22 22 53 19 53 -5 0 -14 -7 -20 -23 -20 -36 0
-47 -19 -47 -82 0 -51 -2 -58 -20 -58 -19 0 -20 7 -20 90 0 74 3 90 15 90 9 0
18 -7 21 -15z m-646 -69 c0 -14 -4 -28 -10 -31 -6 -4 -10 7 -10 24 0 17 5 31
10 31 6 0 10 -11 10 -24z"/>
<path d="M1501 1646 c-7 -8 -11 -32 -9 -53 3 -35 5 -38 33 -38 29 0 30 1 30
50 0 43 -3 50 -21 53 -11 2 -26 -4 -33 -12z m36 -46 c3 -21 -11 -27 -22 -10
-8 13 3 45 12 36 4 -4 8 -15 10 -26z"/>
<path d="M937 1708 c-47 -37 -37 -133 16 -151 44 -14 76 -1 93 39 18 44 10 88
-19 109 -26 18 -67 19 -90 3z m84 -24 c13 -7 9 -83 -5 -97 -16 -15 -50 -13
-73 5 -17 14 -13 81 6 95 13 10 51 9 72 -3z"/>
<path d="M1696 1644 c-28 -27 -19 -85 14 -96 29 -10 50 11 50 50 0 57 -31 79
-64 46z m39 -44 c0 -13 -6 -25 -14 -28 -10 -3 -12 1 -8 17 3 11 1 19 -4 15
-10 -6 -12 9 -2 20 13 12 28 -1 28 -24z"/>
<path d="M1886 1644 c-28 -27 -19 -85 14 -96 29 -10 50 11 50 50 0 57 -31 79
-64 46z m39 -44 c0 -27 -20 -38 -28 -15 -8 20 3 47 17 42 6 -2 11 -14 11 -27z"/>
<path d="M1515 1378 c-30 -17 -35 -29 -29 -67 l7 -33 -26 17 c-35 23 -67 12
-68 -23 -2 -71 -5 -87 -14 -90 -5 -1 -11 21 -12 49 -2 28 -8 58 -14 65 -22 27
-69 10 -69 -25 0 -13 -10 -15 -50 -13 -45 4 -51 2 -61 -22 -9 -20 -9 -29 1
-41 19 -23 4 -30 -25 -11 -22 14 -26 24 -23 54 4 47 34 64 85 50 28 -8 38 -6
54 8 27 25 24 41 -13 64 -43 26 -101 25 -148 -1 -49 -28 -70 -66 -70 -128 0
-46 4 -56 38 -93 33 -35 45 -41 90 -46 39 -3 60 0 90 16 37 19 39 19 61 1 17
-14 35 -17 83 -14 33 2 65 8 71 14 6 6 17 5 32 -5 24 -16 50 -11 59 12 5 12
10 12 33 -5 40 -28 143 -25 158 5 10 19 11 20 28 3 21 -19 97 -42 97 -28 0 5
8 9 19 9 26 0 44 26 38 52 -4 12 -1 28 5 35 17 20 0 80 -29 103 -31 24 -95 27
-113 5 -23 -28 -40 -18 -40 23 0 51 -28 80 -59 61 -11 -7 -21 -25 -23 -39 -2
-19 -10 -26 -30 -28 -14 -2 -38 -14 -52 -27 -28 -26 -30 -24 -26 40 2 41 -27
68 -55 53z m225 -140 c0 -105 -3 -128 -14 -128 -8 0 -18 5 -21 10 -4 7 -12 7
-25 0 -46 -25 -87 1 -96 62 -12 69 49 130 98 99 17 -10 18 -7 18 37 0 41 3 48
20 48 19 0 20 -7 20 -128z m-501 111 c21 -8 31 -17 29 -28 -4 -16 -9 -16 -71
-4 -61 12 -104 -45 -85 -112 11 -39 33 -55 80 -55 34 0 38 3 38 25 0 18 -5 25
-20 25 -13 0 -20 7 -20 20 0 17 7 20 40 20 l40 0 0 -54 c0 -52 -1 -55 -31 -65
-93 -32 -179 22 -179 114 0 95 83 147 179 114z m314 -3 c7 -19 -18 -40 -38
-32 -15 6 -20 28 -8 39 12 12 41 7 46 -7z m-203 -120 c0 -73 14 -95 49 -76 18
9 21 20 21 75 0 58 2 65 20 65 19 0 20 -7 20 -90 0 -72 -3 -90 -14 -90 -8 0
-18 5 -21 10 -4 7 -12 7 -25 0 -27 -14 -51 -12 -72 7 -14 13 -18 31 -18 90 0
66 2 73 20 73 18 0 20 -7 20 -64z m200 -26 c0 -87 -1 -90 -22 -90 -22 0 -23 3
-23 90 0 87 1 90 23 90 21 0 22 -3 22 -90z m355 65 c14 -13 25 -36 25 -50 0
-26 -2 -26 -57 -24 -45 2 -57 -1 -55 -12 5 -23 34 -40 56 -33 51 17 76 -4 31
-24 -61 -28 -121 4 -132 70 -5 32 -1 41 25 68 37 37 74 39 107 5z"/>
<path d="M1642 1248 c-17 -17 -15 -83 2 -97 11 -9 20 -10 35 -1 27 14 31 94 5
104 -22 8 -28 8 -42 -6z m30 -35 c6 -22 -1 -43 -12 -43 -5 0 -8 14 -8 30 1 33
13 40 20 13z"/>
<path d="M1832 1248 c-20 -20 -14 -28 23 -28 37 0 49 22 19 34 -22 8 -28 8
-42 -6z"/>
<path d="M2981 2354 c0 -11 3 -14 6 -6 3 7 2 16 -1 19 -3 4 -6 -2 -5 -13z"/>
<path d="M2983 2250 c0 -30 2 -43 4 -27 2 15 2 39 0 55 -2 15 -4 2 -4 -28z"/>
<path d="M2983 1970 c0 -47 2 -66 4 -42 2 23 2 61 0 85 -2 23 -4 4 -4 -43z"/>
<path d="M2981 1744 c0 -11 3 -14 6 -6 3 7 2 16 -1 19 -3 4 -6 -2 -5 -13z"/>
<path d="M2984 1390 c0 -102 2 -143 3 -92 2 50 2 134 0 185 -1 50 -3 9 -3 -93z"/>
<path d="M2984 900 c0 -168 2 -236 3 -152 2 83 2 221 0 305 -1 83 -3 15 -3
-153z"/>
<path d="M2984 235 c0 -82 2 -115 3 -72 2 43 2 110 0 150 -1 40 -3 5 -3 -78z"/>
<path d="M0 20 c0 -7 507 -10 1501 -10 997 0 1498 3 1494 10 -9 14 -2995 14
-2995 0z"/>
</g>
</svg>
